# xmcd
#
# Track frame offsets: 
#        150
#        14118
#        28027
#        44359
#        60476
#        77679
#        89615
#        105405
#        122881
#        134334
#        148058
#        164001
#        179727
#        194827
#        209661
#
# Disc length: 3004 seconds
#
# Revision: 3
# Processed by: cddbd v1.5.2PL0 Copyright (c) Steve Scherf et al.
# Submitted via: ExactAudioCopyFreeDBPlugin 1.0
#
DISCID=eb0bba0f
DTITLE=Various Artist - Schlager-Giganten: Das Ist Kult! Vol. 2
DYEAR=2005
DGENRE=Schlager
TTITLE0=Freddy Quinn - Morning Sky
TTITLE1=Ann and Andy - Sevilla
TTITLE2=Peter Cornelius - Die Liebe ist da
TTITLE3=Vicky Leandros - Tango d'amor
TTITLE4=Karel Gott - Babička
TTITLE5=Mary Roos - Samba d'amour
TTITLE6=Holger Thomas - Marie, Marie
TTITLE7=Wencke Myhre - In San Marco
TTITLE8=Freddy Breck - Bianca
TTITLE9=Ireen Sheer - Goodbye Mama
TTITLE10=Chris Roberts - Mein Schatz, du bist 'ne Wucht!
TTITLE11=Tony Holiday - Liebe ist...
TTITLE12=Reiner Schoene - Werd' ich noch jung sein, wenn ich älter bin
TTITLE12=?
TTITLE13=Lena Andersson - Hasta mañana
TTITLE14=Curd Jürgens - 60 Jahre - und kein bißchen weise
EXTD=
EXTT0=
EXTT1=
EXTT2=
EXTT3=
EXTT4=
EXTT5=
EXTT6=
EXTT7=
EXTT8=
EXTT9=
EXTT10=
EXTT11=
EXTT12=
EXTT13=
EXTT14=
PLAYORDER=
